<?xml version="1.0" encoding="utf-8"?>
<!-- Generator: Adobe Illustrator 26.0.1, SVG Export Plug-In . SVG Version: 6.00 Build 0)  -->
<svg version="1.1" id="Layer_1" xmlns="http://www.w3.org/2000/svg" xmlns:xlink="http://www.w3.org/1999/xlink" x="0px" y="0px"
	 viewBox="0 0 500 294.5" style="enable-background:new 0 0 500 294.5;" xml:space="preserve">
<g>
	<g>
		<path d="M116.1,251.8c0-0.8,0.4-1.3,1.3-1.3h15.9c0.8,0,1.3,0.4,1.3,1.3v8.8c0,10.3-2.7,17.8-8.1,22.3c-5.4,4.6-13.3,6.8-23.7,6.8
			c-4.8,0-9.2-0.5-13.2-1.5c-4-1-7.3-2.7-10.1-5c-2.8-2.3-5-5.3-6.5-9c-1.5-3.7-2.3-8.3-2.3-13.7v-36.7c0-10.3,2.7-17.7,8.2-22.2
			s13.4-6.7,23.9-6.7c4.9,0,9.4,0.5,13.3,1.5c3.9,1,7.2,2.7,10,5c2.7,2.3,4.9,5.3,6.4,8.9c1.5,3.7,2.2,8.2,2.2,13.5v2.9
			c0,0.8-0.4,1.3-1.3,1.3h-16.1c-0.8,0-1.3-0.4-1.3-1.3v-2.2c0-3.9-1.2-6.7-3.7-8.4c-2.5-1.7-5.4-2.5-8.9-2.5h-1.7
			c-4.5,0-7.7,1.4-9.8,4c-1,1.3-1.7,2.8-2.1,4.6c-0.4,1.8-0.6,3.8-0.6,6.1v27.6c0,3.1,0.4,5.6,1.2,7.5c0.8,1.9,1.8,3.4,2.9,4.5
			c1.2,1.1,2.5,1.8,4,2.2c1.5,0.4,2.9,0.6,4.3,0.6h1.7c4.5,0,7.7-1.3,9.6-4c1.9-2.7,3-6.3,3.1-10.7V251.8z M102.4,203.6
			c-3.7,0-7.1,0.4-10,1.1c-2.9,0.7-5.4,2-7.4,3.7c-2,1.7-3.5,4-4.6,6.8c-1.1,2.8-1.6,6.4-1.6,10.7v33.6c0,7.7,2,13.2,5.9,16.4
			c4,3.2,9.8,4.8,17.7,4.8c7.3,0,13.1-1.6,17.2-4.7c4.1-3.1,6.2-8.7,6.2-16.7c0-0.6-0.3-0.8-0.8-0.8c-0.6,0-0.8,0.3-0.8,0.8
			c0,7.1-1.9,12.1-5.6,15.2c-3.7,3.1-9.1,4.6-16.2,4.6c-6.9,0-12.3-1.4-16.2-4.3c-3.9-2.8-5.9-8-5.9-15.4v-33.6
			c0-7.3,1.8-12.5,5.3-15.8c3.5-3.3,9.1-5,16.8-5c4.9,0,8.8,0.7,11.5,2c2.7,1.3,4.8,2.8,6.1,4.5c1.3,1.7,2.2,3.3,2.4,4.7
			c0.3,1.5,0.4,2.4,0.4,2.8c0,0.7,0.3,1,1,1c0.7,0,1-0.3,1-1c0-2.9-0.7-5.3-2-7.3c-1.3-2-3.1-3.6-5.2-4.8c-2.1-1.2-4.5-2.1-7.2-2.6
			C107.8,203.9,105.1,203.6,102.4,203.6z"/>
		<path d="M194,197.5c0-0.8,0.4-1.3,1.3-1.3h15.9c0.8,0,1.3,0.4,1.3,1.3v89.6c0,0.8-0.4,1.3-1.3,1.3h-15.9c-0.8,0-1.3-0.4-1.3-1.3
			v-37.1h-22.6v37.1c0,0.8-0.4,1.3-1.3,1.3h-15.9c-0.7,0-1.1-0.4-1.1-1.3v-89.6c0-0.8,0.4-1.3,1.1-1.3h15.9c0.8,0,1.3,0.4,1.3,1.3
			v35H194V197.5z M161.2,279.7c0,0.6,0.3,0.8,0.9,0.8c0.6,0,0.9-0.3,0.9-0.8v-37.4h39.2v37.4c0,0.5,0.3,0.7,0.8,0.8
			c0.5,0,0.8-0.2,0.8-0.8v-75.1c0-0.5-0.3-0.7-0.8-0.8c-0.5-0.1-0.8,0.2-0.8,0.8v35.7H163v-35.7c0-0.5-0.3-0.7-0.9-0.7
			c-0.6,0-0.9,0.2-0.9,0.7V279.7z"/>
		<path d="M250.9,197c0.2-0.6,0.5-0.8,1-0.8h17.3c0.5,0,0.8,0.3,1,0.8l24.1,89.8c0.2,1-0.2,1.5-1.3,1.5h-15.9c-0.6,0-0.9-0.3-1-0.8
			l-5.4-19.5h-20.4l-5.3,19.5c-0.2,0.6-0.5,0.8-1,0.8H228c-1,0-1.4-0.5-1.3-1.5L250.9,197z M282.7,279.8c0.2,0.5,0.5,0.7,1,0.6
			c0.5-0.1,0.6-0.4,0.4-1l-22.3-74.3c-0.2-0.9-0.7-1.4-1.6-1.5c-0.9,0-1.4,0.4-1.6,1.5L237,279.4c-0.2,0.5,0,0.8,0.5,1
			c0.5,0.2,0.9,0,1-0.4l6.1-21.1h31.7L282.7,279.8z M260.3,205.7l15.5,51.4H245L260.3,205.7z M266.4,250.5l-6-21.1l-5.6,21.1H266.4z
			"/>
		<path d="M361.2,251.9c-2,4.2-4.9,7.2-8.7,8.9l11.7,25.8c0.2,0.5,0.2,0.9,0,1.2c-0.2,0.3-0.5,0.5-1,0.5h-17.2c-0.5,0-0.8-0.2-1-0.7
			l-10.9-23.7h-7.1v23.2c0,0.8-0.4,1.3-1.3,1.3h-16.1c-0.7,0-1-0.4-1-1.3v-89.6c0-0.8,0.3-1.3,1-1.3h29c7.8,0,13.9,2.1,18.3,6.4
			c4.4,4.3,6.6,10.5,6.6,18.7v17.6c0,2.4-0.2,4.7-0.6,7C362.6,248.1,362,250.1,361.2,251.9z M319,255.9h20.1l11.7,24.1
			c0.2,0.4,0.5,0.5,1,0.3c0.5-0.1,0.7-0.5,0.5-1.2l-11.7-23.7c5.5-0.7,9.3-2.6,11.4-5.4c2.1-2.9,3.2-6.9,3.2-12.1v-17.4
			c0-3.8-0.7-6.8-2.2-9.1s-3.3-3.9-5.3-5c-2-1.1-4.1-1.8-6.1-2.1c-2-0.3-3.6-0.4-4.7-0.4h-18.8c-0.2,0-0.4,0.1-0.6,0.3
			c-0.2,0.2-0.3,0.4-0.3,0.6v75.1c0,0.5,0.3,0.7,0.8,0.7s0.8-0.2,0.8-0.7V255.9z M353.6,237.9c0,3.5-0.5,6.4-1.5,8.5
			c-1,2.1-2.4,3.8-4,4.9c-1.7,1.1-3.6,1.9-5.7,2.2c-2.1,0.4-4.3,0.6-6.6,0.6H319v-48.4h18c3.7,0,6.7,0.6,8.9,1.7
			c2.2,1.1,3.9,2.4,5,4c1.1,1.5,1.8,3.2,2.2,4.9c0.3,1.7,0.5,3.1,0.5,4.3V237.9z M345.4,225.5c0-2.4-0.3-4.3-0.8-5.8
			c-0.5-1.4-1.3-2.5-2.4-3.3c-1.1-0.7-2.6-1.2-4.4-1.4c-1.8-0.2-4-0.3-6.6-0.3h-4v30.8h4c2.2,0,4.2-0.1,5.9-0.2
			c1.7-0.1,3.2-0.6,4.4-1.3c1.2-0.7,2.1-1.8,2.8-3.3c0.7-1.5,1-3.6,1.1-6.3V225.5z"/>
		<path d="M428.2,196.2c0.8,0,1.3,0.4,1.3,1.3v66.9c0,3.3-0.7,6.6-2,9.6c-1.3,3.1-3.1,5.8-5.3,8.1c-2.2,2.3-4.9,4.2-8,5.5
			c-3.1,1.3-6.4,2-9.9,2h-3.5c-5.9,0-11.4-2.1-16.6-6.3c-2.1-2-4.2-4.2-6.1-6.7c-1.9-2.5-3.5-5.2-4.8-8.1c-0.3-0.7-0.1-1.2,0.4-1.7
			l14.7-10.2c0.3-0.2,0.6-0.3,0.9-0.3s0.6,0.2,0.8,0.7c0.5,1.4,1,2.9,1.7,4.5c0.7,1.6,1.5,3.1,2.5,4.5c1,1.4,2.1,2.5,3.5,3.4
			c1.3,0.9,3,1.4,4.8,1.4c1.8,0,3.2-0.5,4.3-1.6c1.1-1.1,1.9-2.4,2.5-4c0.6-1.6,1-3.3,1.2-5c0.2-1.8,0.3-3.4,0.3-4.9v-57.9
			c0-0.8,0.4-1.3,1.3-1.3H428.2z M386.2,268.8c-0.3-0.5-0.7-0.5-1.2-0.2c-0.5,0.3-0.6,0.8-0.2,1.3c0.8,1.5,1.8,2.9,2.8,4.3
			c1,1.3,2.2,2.5,3.5,3.6c1.3,1,2.9,1.8,4.7,2.4c1.9,0.6,4,0.9,6.6,0.9c5.9,0,10.4-2.1,13.7-6.4c3.3-4.3,5-10.2,5-17.7v-52.3
			c0-0.5-0.3-0.7-0.9-0.7c-0.6,0-0.9,0.2-0.9,0.7v52.3c0,3.4-0.3,6.6-1,9.4c-0.7,2.8-1.8,5.2-3.3,7.1c-3.1,3.9-7.3,5.9-12.6,5.9
			c-2.3,0-4.3-0.3-5.9-0.8c-1.6-0.6-3.1-1.3-4.3-2.2c-1.3-0.9-2.4-2-3.3-3.3C387.9,271.5,387,270.2,386.2,268.8z"/>
	</g>
	<g>
		<rect x="453.3" y="80.4" width="2.9" height="5.7"/>
		<rect x="43.8" y="80.1" width="2.9" height="5.7"/>
	</g>
	<path d="M409.4,77.2c-0.3-5.1-4.1-12.1-8.4-14.4c-8.3-4.5-11-11.4-13.8-19.1c-2.9-8-6.3-15.8-9.2-23.8c-3.8-10.2-11-15.2-21.9-15.1
		c-26.6,0.1-53.3,0.1-79.9,0c-10.6,0-17.7,4.7-21.6,14.5c-3.9,9.9-7.8,19.8-11.5,29.7c-2,5.3-4.3,9.6-10,12.3
		c-3.7,1.7-6.5,6.2-8.6,10c-1.9,3.4-3.6,6.7-7.4,4.7c-2.4-1.3-4.6-4.9-4.8-7.7c-0.7-9,0-18.1-0.5-27.2c-0.6-9.6-7.2-15.4-16.8-15.6
		c-11.2-0.2-18.4,6.7-18.5,18.3c-0.1,25.1,0.1,50.1-0.2,75.2c0,2.7-2.3,7.6-3.8,7.8c-6.1,0.6-4.1-4.7-4.2-8
		c-0.2-7.2,0-14.4-0.1-21.6c-0.1-13.1-6.8-19.7-20.1-20.7c-2.6-0.2-5.9-2-7.2-4.1C133.6,61,125,57,111.6,59.7v7.9H95.2
		c-2.9,0-5.2,2.3-5.2,5.2c0,2.9,2.3,5.2,5.2,5.2h16.3v11.2H95.2c-2.9,0-5.2,2.3-5.2,5.2v0c0,2.9,2.3,5.2,5.2,5.2h16.3v7.4
		c14.8,1.8,21.5-1.6,29.6-13.5c1.4-2.1,5.6-3.4,8.4-3.2c1.7,0.1,4.3,3.8,4.4,6.1c0.5,8.8,0,17.6,0.3,26.4
		c0.4,12.1,8.6,19.1,20.5,17.9c9.6-1,15.4-8.1,15.4-19.9c0.2-24,0-48,0.2-72c0-3.4-2.4-9.4,3.9-9.5c6.7-0.1,4.2,6.1,4.4,9.9
		c0.3,7.7-0.1,15.5,0.2,23.2c0.3,9.4,7.2,16.3,16.7,17.2c2.3,0.2,4.5,0.4,7.6,0.8c0,13.8,0,26.9,0,40.2c5.1,0.2,9.2,0.4,14.3,0.7
		c0,5.4-0.2,10.4,0,15.4c0.5,9.2,6.2,14.9,14.4,14.8c8.2-0.1,13.7-6,14-15.2c0.2-5,0-9.9,0-14.7c34.3,0,67.4,0,100.9,0
		c0,5.1-0.1,9.6,0,14.2c0.2,9.6,5.1,15.4,13.3,15.8c8.6,0.4,14.5-5.3,15.1-15c0.3-5,0.1-10,0.1-15.3c5.4-0.2,9.8-0.5,14.6-0.7
		C409.8,112.2,410.4,94.6,409.4,77.2z M252.1,99.7c-7.4,0-13.1-5.8-12.9-13.3c0.2-6.9,6-12.8,12.7-12.9c7.2-0.1,12.8,5.8,12.7,13.4
		C264.5,94.3,259.3,99.6,252.1,99.7z M255.9,57.6c4.4-11.7,8.1-22.9,13-33.6c1.1-2.5,6-4.5,9.2-4.6c25.5-0.4,51.1-0.4,76.6,0.1
		c3.4,0.1,8.4,3.1,9.8,6.1c4.6,10,8,20.7,12.1,32C335.9,57.6,296.5,57.6,255.9,57.6z M380.1,99.7c-7.4-0.2-12.6-6-12.3-13.7
		c0.3-7.2,6-12.6,12.9-12.5c7.1,0.2,12.7,6.5,12.4,13.9C392.7,94.7,387.2,99.8,380.1,99.7z"/>
</g>
</svg>
