<svg version="1.1" id="Layer_1" xmlns="http://www.w3.org/2000/svg" xmlns:xlink="http://www.w3.org/1999/xlink" x="0px" y="0px" viewBox="0 0 770 453.53" style="enable-background:new 0 0 500 294.5;" xml:space="preserve" width="700" height="412.3"><style type="text/css">.st0{fill:#FFFFFF;}</style><g><g><path class="st0" d="M178.794 387.772c0 -1.232 0.616 -2.002 2.002 -2.002h24.486c1.232 0 2.002 0.616 2.002 2.002v13.552c0 15.862 -4.158 27.412 -12.474 34.342 -8.316 7.084 -20.482 10.472 -36.498 10.472 -7.392 0 -14.168 -0.77 -20.328 -2.31s-11.242 -4.158 -15.554 -7.7 -7.7 -8.162 -10.01 -13.86 -3.542 -12.782 -3.542 -21.098v-56.518c0 -15.862 4.158 -27.258 12.628 -34.188s20.636 -10.318 36.806 -10.318c7.546 0 14.476 0.77 20.482 2.31 6.006 1.54 11.088 4.158 15.4 7.7 4.158 3.542 7.546 8.162 9.856 13.706 2.31 5.698 3.388 12.628 3.388 20.79v4.466c0 1.232 -0.616 2.002 -2.002 2.002h-24.794c-1.232 0 -2.002 -0.616 -2.002 -2.002v-3.388c0 -6.006 -1.848 -10.318 -5.698 -12.936s-8.316 -3.85 -13.706 -3.85h-2.618c-6.93 0 -11.858 2.156 -15.092 6.16 -1.54 2.002 -2.618 4.312 -3.234 7.084 -0.616 2.772 -0.924 5.852 -0.924 9.394v42.504c0 4.774 0.616 8.624 1.848 11.55s2.772 5.236 4.466 6.93c1.848 1.694 3.85 2.772 6.16 3.388 2.31 0.616 4.466 0.924 6.622 0.924h2.618c6.93 0 11.858 -2.002 14.784 -6.16 2.926 -4.158 4.62 -9.702 4.774 -16.478v-6.468zm-21.098 -74.228c-5.698 0 -10.934 0.616 -15.4 1.694 -4.466 1.078 -8.316 3.08 -11.396 5.698s-5.39 6.16 -7.084 10.472 -2.464 9.856 -2.464 16.478v51.744c0 11.858 3.08 20.328 9.086 25.256 6.16 4.928 15.092 7.392 27.258 7.392 11.242 0 20.174 -2.464 26.488 -7.238s9.548 -13.398 9.548 -25.718c0 -0.924 -0.462 -1.232 -1.232 -1.232 -0.924 0 -1.232 0.462 -1.232 1.232 0 10.934 -2.926 18.634 -8.624 23.408 -5.698 4.774 -14.014 7.084 -24.948 7.084 -10.626 0 -18.942 -2.156 -24.948 -6.622 -6.006 -4.312 -9.086 -12.32 -9.086 -23.716v-51.744c0 -11.242 2.772 -19.25 8.162 -24.332 5.39 -5.082 14.014 -7.7 25.872 -7.7 7.546 0 13.552 1.078 17.71 3.08 4.158 2.002 7.392 4.312 9.394 6.93 2.002 2.618 3.388 5.082 3.696 7.238 0.462 2.31 0.616 3.696 0.616 4.312 0 1.078 0.462 1.54 1.54 1.54s1.54 -0.462 1.54 -1.54c0 -4.466 -1.078 -8.162 -3.08 -11.242s-4.774 -5.544 -8.008 -7.392c-3.234 -1.848 -6.93 -3.234 -11.088 -4.004 -4.004 -0.616 -8.162 -1.078 -12.32 -1.078z"/><path class="st0" d="M298.76 304.15c0 -1.232 0.616 -2.002 2.002 -2.002h24.486c1.232 0 2.002 0.616 2.002 2.002v137.984c0 1.232 -0.616 2.002 -2.002 2.002h-24.486c-1.232 0 -2.002 -0.616 -2.002 -2.002V385h-34.804v57.134c0 1.232 -0.616 2.002 -2.002 2.002h-24.486c-1.078 0 -1.694 -0.616 -1.694 -2.002V304.15c0 -1.232 0.616 -2.002 1.694 -2.002h24.486c1.232 0 2.002 0.616 2.002 2.002v53.9h34.804v-53.9zm-50.512 126.588c0 0.924 0.462 1.232 1.386 1.232s1.386 -0.462 1.386 -1.232v-57.596h60.368v57.596c0 0.77 0.462 1.078 1.232 1.232 0.77 0 1.232 -0.308 1.232 -1.232V315.084c0 -0.77 -0.462 -1.078 -1.232 -1.232s-1.232 0.308 -1.232 1.232v54.978H251.02v-54.978c0 -0.77 -0.462 -1.078 -1.386 -1.078s-1.386 0.308 -1.386 1.078v115.654z"/><path class="st0" d="M386.386 303.38c0.308 -0.924 0.77 -1.232 1.54 -1.232h26.642c0.77 0 1.232 0.462 1.54 1.232l37.114 138.292c0.308 1.54 -0.308 2.31 -2.002 2.31h-24.486c-0.924 0 -1.386 -0.462 -1.54 -1.232l-8.316 -30.03h-31.416L377.3 442.75c-0.308 0.924 -0.77 1.232 -1.54 1.232h-24.64c-1.54 0 -2.156 -0.77 -2.002 -2.31l37.268 -138.292zm48.972 127.512c0.308 0.77 0.77 1.078 1.54 0.924s0.924 -0.616 0.616 -1.54l-34.342 -114.422c-0.308 -1.386 -1.078 -2.156 -2.464 -2.31 -1.386 0 -2.156 0.616 -2.464 2.31L364.98 430.276c-0.308 0.77 0 1.232 0.77 1.54s1.386 0 1.54 -0.616l9.394 -32.494h48.818l9.856 32.186zm-34.496 -114.114 23.87 79.156H377.3l23.562 -79.156zm9.394 68.992 -9.24 -32.494 -8.624 32.494h17.864z"/><path class="st0" d="M556.248 387.926c-3.08 6.468 -7.546 11.088 -13.398 13.706l18.018 39.732c0.308 0.77 0.308 1.386 0 1.848s-0.77 0.77 -1.54 0.77H532.84c-0.77 0 -1.232 -0.308 -1.54 -1.078l-16.786 -36.498H503.58v35.728c0 1.232 -0.616 2.002 -2.002 2.002h-24.794c-1.078 0 -1.54 -0.616 -1.54 -2.002V304.15c0 -1.232 0.462 -2.002 1.54 -2.002h44.66c12.012 0 21.406 3.234 28.182 9.856s10.164 16.17 10.164 28.798v27.104a62.359 62.359 0 0 1 -0.924 10.78 33.971 33.971 0 0 1 -2.618 9.24zm-64.988 6.16h30.954l18.018 37.114c0.308 0.616 0.77 0.77 1.54 0.462 0.77 -0.154 1.078 -0.77 0.77 -1.848l-18.018 -36.498c8.47 -1.078 14.322 -4.004 17.556 -8.316 3.234 -4.466 4.928 -10.626 4.928 -18.634V339.57c0 -5.852 -1.078 -10.472 -3.388 -14.014s-5.082 -6.006 -8.162 -7.7 -6.314 -2.772 -9.394 -3.234c-3.08 -0.462 -5.544 -0.616 -7.238 -0.616h-28.952c-0.308 0 -0.616 0.154 -0.924 0.462s-0.462 0.616 -0.462 0.924v115.654c0 0.77 0.462 1.078 1.232 1.078s1.232 -0.308 1.232 -1.078v-36.96zm53.284 -27.72c0 5.39 -0.77 9.856 -2.31 13.09 -1.54 3.234 -3.696 5.852 -6.16 7.546 -2.618 1.694 -5.544 2.926 -8.778 3.388 -3.234 0.616 -6.622 0.924 -10.164 0.924H491.26v-74.536h27.72c5.698 0 10.318 0.924 13.706 2.618s6.006 3.696 7.7 6.16c1.694 2.31 2.772 4.928 3.388 7.546 0.462 2.618 0.77 4.774 0.77 6.622v26.642zm-12.628 -19.096c0 -3.696 -0.462 -6.622 -1.232 -8.932 -0.77 -2.156 -2.002 -3.85 -3.696 -5.082 -1.694 -1.078 -4.004 -1.848 -6.776 -2.156s-6.16 -0.462 -10.164 -0.462h-6.16v47.432h6.16c3.388 0 6.468 -0.154 9.086 -0.308s4.928 -0.924 6.776 -2.002c1.848 -1.078 3.234 -2.772 4.312 -5.082s1.54 -5.544 1.694 -9.702V347.27z"/><path class="st0" d="M659.428 302.148c1.232 0 2.002 0.616 2.002 2.002v103.026a37.391 37.391 0 0 1 -3.08 14.784 40.718 40.718 0 0 1 -8.162 12.474 36.649 36.649 0 0 1 -12.32 8.47 39.077 39.077 0 0 1 -15.246 3.08h-5.39c-9.086 0 -17.556 -3.234 -25.564 -9.702 -3.234 -3.08 -6.468 -6.468 -9.394 -10.318a63.403 63.403 0 0 1 -7.392 -12.474c-0.462 -1.078 -0.154 -1.848 0.616 -2.618l22.638 -15.708c0.462 -0.308 0.924 -0.462 1.386 -0.462s0.924 0.308 1.232 1.078c0.77 2.156 1.54 4.466 2.618 6.93s2.31 4.774 3.85 6.93 3.234 3.85 5.39 5.236c2.002 1.386 4.62 2.156 7.392 2.156s4.928 -0.77 6.622 -2.464 2.926 -3.696 3.85 -6.16a33.04 33.04 0 0 0 1.848 -7.7c0.308 -2.772 0.462 -5.236 0.462 -7.546V303.996c0 -1.232 0.616 -2.002 2.002 -2.002h24.64zm-64.68 111.804c-0.462 -0.77 -1.078 -0.77 -1.848 -0.308s-0.924 1.232 -0.308 2.002c1.232 2.31 2.772 4.466 4.312 6.622 1.54 2.002 3.388 3.85 5.39 5.544 2.002 1.54 4.466 2.772 7.238 3.696 2.926 0.924 6.16 1.386 10.164 1.386 9.086 0 16.016 -3.234 21.098 -9.856s7.7 -15.708 7.7 -27.258v-80.542c0 -0.77 -0.462 -1.078 -1.386 -1.078s-1.386 0.308 -1.386 1.078v80.542c0 5.236 -0.462 10.164 -1.54 14.476s-2.772 8.008 -5.082 10.934c-4.774 6.006 -11.242 9.086 -19.404 9.086 -3.542 0 -6.622 -0.462 -9.086 -1.232 -2.464 -0.924 -4.774 -2.002 -6.622 -3.388a19.926 19.926 0 0 1 -5.082 -5.082c-1.54 -2.464 -2.926 -4.466 -4.158 -6.622z"/></g><g><path x="453.3" y="80.4" class="st0" width="2.9" height="5.7" d="M698.082 123.816h4.466v8.778h-4.466v-8.778z"/><path x="43.8" y="80.1" class="st0" width="2.9" height="5.7" d="M67.452 123.354h4.466v8.778h-4.466v-8.778z"/></g><path class="st0" d="M630.476 118.888c-0.462 -7.854 -6.314 -18.634 -12.936 -22.176 -12.782 -6.93 -16.94 -17.556 -21.252 -29.414 -4.466 -12.32 -9.702 -24.332 -14.168 -36.652 -5.852 -15.708 -16.94 -23.408 -33.726 -23.254 -40.964 0.154 -82.082 0.154 -123.046 0 -16.324 0 -27.258 7.238 -33.264 22.33 -6.006 15.246 -12.012 30.492 -17.71 45.738 -3.08 8.162 -6.622 14.784 -15.4 18.942 -5.698 2.618 -10.01 9.548 -13.244 15.4 -2.926 5.236 -5.544 10.318 -11.396 7.238 -3.696 -2.002 -7.084 -7.546 -7.392 -11.858 -1.078 -13.86 0 -27.874 -0.77 -41.888 -0.924 -14.784 -11.088 -23.716 -25.872 -24.024 -17.248 -0.308 -28.336 10.318 -28.49 28.182 -0.154 38.654 0.154 77.154 -0.308 115.808 0 4.158 -3.542 11.704 -5.852 12.012 -9.394 0.924 -6.314 -7.238 -6.468 -12.32 -0.308 -11.088 0 -22.176 -0.154 -33.264 -0.154 -20.174 -10.472 -30.338 -30.954 -31.878 -4.004 -0.308 -9.086 -3.08 -11.088 -6.314 -11.242 -17.556 -24.486 -23.716 -45.122 -19.558v12.166h-25.256a7.952 7.952 0 0 0 -8.008 8.008 7.952 7.952 0 0 0 8.008 8.008h25.102v17.248h-25.102a7.952 7.952 0 0 0 -8.008 8.008 7.952 7.952 0 0 0 8.008 8.008h25.102v11.396c22.792 2.772 33.11 -2.464 45.584 -20.79 2.156 -3.234 8.624 -5.236 12.936 -4.928 2.618 0.154 6.622 5.852 6.776 9.394 0.77 13.552 0 27.104 0.462 40.656 0.616 18.634 13.244 29.414 31.57 27.566 14.784 -1.54 23.716 -12.474 23.716 -30.646 0.308 -36.96 0 -73.92 0.308 -110.88 0 -5.236 -3.696 -14.476 6.006 -14.63 10.318 -0.154 6.468 9.394 6.776 15.246 0.462 11.858 -0.154 23.87 0.308 35.728 0.462 14.476 11.088 25.102 25.718 26.488 3.542 0.308 6.93 0.616 11.704 1.232v61.908c7.854 0.308 14.168 0.616 22.022 1.078 0 8.316 -0.308 16.016 0 23.716 0.77 14.168 9.548 22.946 22.176 22.792 12.628 -0.154 21.098 -9.24 21.56 -23.408 0.308 -7.7 0 -15.246 0 -22.638h155.386c0 7.854 -0.154 14.784 0 21.868 0.308 14.784 7.854 23.716 20.482 24.332 13.244 0.616 22.33 -8.162 23.254 -23.1 0.462 -7.7 0.154 -15.4 0.154 -23.562 8.316 -0.308 15.092 -0.77 22.484 -1.078 0 -28.336 0.924 -55.44 -0.616 -82.236zm-242.242 34.65c-11.396 0 -20.174 -8.932 -19.866 -20.482 0.308 -10.626 9.24 -19.712 19.558 -19.866 11.088 -0.154 19.712 8.932 19.558 20.636 -0.154 11.396 -8.162 19.558 -19.25 19.712zm5.852 -64.834c6.776 -18.018 12.474 -35.266 20.02 -51.744 1.694 -3.85 9.24 -6.93 14.168 -7.084 39.27 -0.616 78.694 -0.616 117.964 0.154 5.236 0.154 12.936 4.774 15.092 9.394 7.084 15.4 12.32 31.878 18.634 49.28H394.086zm191.268 64.834c-11.396 -0.308 -19.404 -9.24 -18.942 -21.098 0.462 -11.088 9.24 -19.404 19.866 -19.25 10.934 0.308 19.558 10.01 19.096 21.406 -0.616 11.242 -9.086 19.096 -20.02 18.942z"/></g></svg>